<svg width="40" height="40" viewBox="0 0 40 40" fill="none" xmlns="http://www.w3.org/2000/svg">
<path d="M11.3828 8.59375V31.4062H28.625V8.59375H11.3828ZM27.7656 30.5469H12.2422V9.45312H27.7656V30.5469Z" fill="#115C36"/>
<path d="M26.0781 11.4139H13.9297V15.4686H26.0781V11.4139ZM25.2187 14.6093H14.7891V12.2733H25.2187V14.6093ZM17.0625 18.0077H16.0469C16.1094 18.2968 16.1953 19.4374 16.2344 19.9921C15.6797 19.953 14.5312 19.8671 14.25 19.8046V20.8202C14.5391 20.7577 15.6797 20.6718 16.2344 20.6327C16.1953 21.1952 16.1094 22.328 16.0469 22.6093H17.0625C17 22.3202 16.9141 21.1952 16.875 20.6327C17.4375 20.6718 18.5625 20.7577 18.8437 20.8202V19.8046C18.5625 19.8671 17.4375 19.953 16.875 19.9921C16.9141 19.4374 17 18.2968 17.0625 18.0077ZM17.8203 24.328C17.6641 24.5702 16.9141 25.4452 16.5469 25.8671C16.1797 25.4452 15.4375 24.5858 15.2812 24.3358L14.5625 25.0546C14.8047 25.2108 15.6641 25.953 16.0937 26.3202C15.6641 26.6952 14.8203 27.4218 14.5703 27.578L15.2891 28.2968C15.4453 28.0546 16.1797 27.203 16.5469 26.7733C16.9141 27.1952 17.6562 28.0546 17.8125 28.3046L18.5312 27.5858C18.2891 27.4296 17.4219 26.6874 17 26.3202C17.4219 25.953 18.2891 25.203 18.5391 25.0468L17.8203 24.328V24.328ZM21.1562 19.8827H25.7578V20.7421H21.1562V19.8827ZM21.1562 25.8905H25.7578V26.7499H21.1562V25.8905Z" fill="#115C36"/>
<path d="M23.9357 25.0221C24.1981 24.7597 24.1981 24.3343 23.9357 24.0719C23.6733 23.8095 23.2479 23.8095 22.9855 24.0719C22.7231 24.3343 22.7231 24.7597 22.9855 25.0221C23.2479 25.2845 23.6733 25.2844 23.9357 25.0221Z" fill="#115C36"/>
<path d="M23.9357 28.561C24.1981 28.2986 24.1981 27.8732 23.9357 27.6108C23.6733 27.3484 23.2479 27.3485 22.9855 27.6108C22.7231 27.8732 22.7231 28.2986 22.9855 28.561C23.2479 28.8234 23.6733 28.8234 23.9357 28.561Z" fill="#115C36"/>
</svg>
