<svg width="41" height="40" viewBox="0 0 41 40" fill="none" xmlns="http://www.w3.org/2000/svg">
<path d="M18.0235 18.3906C20.5235 18.3906 22.5626 16.3516 22.5626 13.8516C22.5626 11.3438 20.5313 9.3125 18.0235 9.3125C15.5157 9.3125 13.4844 11.3516 13.4844 13.8516C13.4766 16.3594 15.5235 18.3906 18.0235 18.3906ZM18.0235 10.1719C20.0469 10.1719 21.7032 11.8203 21.7032 13.8516C21.7032 15.8828 20.0547 17.5312 18.0235 17.5312C15.9922 17.5312 14.3438 15.8828 14.3438 13.8516C14.3438 11.8203 15.9922 10.1719 18.0235 10.1719ZM25.2891 29.25L25.2579 28.8203L24.3985 28.875L24.4297 29.3047C24.4375 29.4766 24.4454 29.6484 24.4532 29.8281L11.7266 28.4688C11.7266 28.4688 13.2657 20.7344 18.0391 20.7344C18.5782 20.7344 19.1094 20.8359 19.6251 21.0313L20.0235 21.1797L20.3282 20.375L19.9297 20.2266C19.3204 19.9922 18.6876 19.875 18.0469 19.875C16.0704 19.875 14.2188 20.9766 12.8438 22.9766C11.5001 24.9297 10.7579 27.5156 10.7579 30.2578V30.6875H25.3204V30.2656C25.3282 29.9297 25.3125 29.5859 25.2891 29.25Z" fill="#115C36"/>
<path d="M22.9687 23.6875L21.9843 24.6328L23.7656 25.9844L24.0156 26.1719L24.2343 25.9922L30.6171 20.7891L29.2578 19.375L24.039 25.2187L22.9687 23.6875Z" fill="#115C36"/>
<path d="M24.0781 27.4922C22.164 27.4922 20.6093 25.9375 20.6093 24.0234C20.6093 22.1094 22.164 20.5547 24.0781 20.5547C24.9765 20.5547 25.8202 20.8906 26.4687 21.5078L27.0624 20.8828C26.2577 20.1172 25.2031 19.6953 24.0859 19.6953C21.6952 19.6953 19.7578 21.6328 19.7578 24.0234C19.7578 26.4141 21.7031 28.3516 24.0859 28.3516C26.4765 28.3516 28.414 26.4062 28.4062 24.0234H27.5468C27.5546 25.9375 25.9921 27.4922 24.0781 27.4922Z" fill="#115C36"/>
</svg>
