<svg width="40" height="40" viewBox="0 0 40 40" fill="none" xmlns="http://www.w3.org/2000/svg">
<path d="M31.8359 21.3359L30.375 18.8516L29.6484 17.6016L29.2812 16.9766L29.1953 16.8203C29.1797 16.7813 29.1562 16.7344 29.1406 16.6953C29.1094 16.6094 29.0859 16.5156 29.0703 16.4297L29.0625 16.3984V16.3125L29.0547 16.1563C29.0547 16.0547 29.0469 15.9453 29.039 15.8438C29.0234 15.6406 29.0078 15.4297 28.9765 15.2188C28.9219 14.7969 28.8437 14.3828 28.7344 13.9766C28.5234 13.1563 28.2187 12.3672 27.8203 11.625C27.0312 10.1406 25.875 8.85157 24.4922 7.89844C23.7969 7.42188 23.0547 7.02344 22.2656 6.72657C21.4765 6.42188 20.6562 6.21876 19.8203 6.11719C18.1484 5.90626 16.4297 6.10157 14.8515 6.69532C13.2734 7.28126 11.8359 8.25001 10.7031 9.50001C9.57029 10.75 8.73435 12.2734 8.30467 13.9141C8.08592 14.7344 7.96873 15.5781 7.9531 16.4219C7.93748 17.2734 8.02342 18.125 8.19529 18.9453C8.19529 18.9453 8.48435 20.5859 9.67967 22.4531C9.73435 22.5391 9.79685 22.6328 9.85935 22.7188L10.0469 22.9609L10.6953 23.7656L10.7969 23.8906C10.8281 23.9375 10.8672 23.9844 10.8984 24.0313C11.0312 24.2188 11.1484 24.4141 11.25 24.6094C11.4531 25.0078 11.5859 25.4219 11.5781 25.8125L11.7109 33.9609H23.875V29.5859H25.4609C25.5234 29.5859 25.5859 29.5859 25.6406 29.5781C25.7578 29.5625 25.875 29.5547 25.9922 29.5313C26.4531 29.4531 26.8984 29.2734 27.289 29.0078C27.6797 28.7422 28.0156 28.3984 28.2656 28C28.5156 27.6016 28.6875 27.1484 28.75 26.6797C28.7812 26.4531 28.7812 26.2031 28.7812 26.0078V23.3516L30.5312 23.3281H30.8203C30.9531 23.3203 31.0781 23.2969 31.2031 23.25C31.3281 23.2031 31.4453 23.1406 31.5469 23.0625C31.6562 22.9844 31.75 22.8906 31.8203 22.7813C31.8906 22.6719 31.9531 22.5547 31.9922 22.4297C32.0312 22.3047 32.0547 22.1797 32.0547 22.0469C32.0547 21.8047 31.9765 21.5391 31.8359 21.3359V21.3359ZM31.1719 22.3438C31.1406 22.3906 31.1015 22.4219 31.0625 22.4531C31.0234 22.4844 30.9765 22.5078 30.9297 22.5234C30.8828 22.5391 30.8359 22.5469 30.7812 22.5469L28.3437 22.5234H27.914V26.0313C27.914 26.25 27.914 26.4063 27.8906 26.5859C27.8437 26.9297 27.7187 27.2656 27.5312 27.5625C27.3437 27.8594 27.0937 28.1172 26.8047 28.3125C26.5156 28.5078 26.1797 28.6406 25.8359 28.7031C25.75 28.7188 25.664 28.7266 25.5781 28.7344C25.539 28.7422 23.0234 28.7422 23.0234 28.7422V32.9063L12.6719 31.25L12.539 25.7891C12.5312 25.5 12.4844 25.2188 12.4062 24.9609C12.3281 24.6875 12.2109 24.4297 12.0859 24.1875C11.9609 23.9453 11.8125 23.7188 11.6562 23.5C11.6172 23.4531 11.5703 23.3984 11.5312 23.3438C11.4922 23.2891 11.4531 23.2422 11.3984 23.1797L11.1484 22.9063L11.1328 22.8828L10.7812 22.4297L10.5937 22.1953C10.5312 22.1172 10.4844 22.0391 10.4297 21.9609C10.2187 21.6484 10.0156 21.3047 9.83592 20.9609C9.65623 20.6172 9.49998 20.2578 9.35935 19.8906C9.22654 19.5234 9.10935 19.1484 9.0156 18.7656C8.64842 17.2422 8.6406 15.625 8.99998 14.1328C9.38279 12.6094 10.1484 11.1797 11.1953 10.0078C12.2422 8.82813 13.5781 7.90626 15.0547 7.34376C16.5312 6.78907 18.1406 6.60157 19.7109 6.78907C21.2812 6.97657 22.8047 7.54688 24.1015 8.45313C25.3984 9.35157 26.4844 10.5625 27.2187 11.9609C27.5859 12.6563 27.875 13.3984 28.0625 14.1641C28.1562 14.5469 28.2265 14.9375 28.2734 15.3281C28.2969 15.5234 28.3125 15.7188 28.3281 15.9141C28.3359 16.0156 28.3437 16.1094 28.3437 16.2109V16.4297C28.3437 16.4531 28.3515 16.5078 28.3594 16.5625C28.3828 16.7031 28.414 16.8438 28.4687 16.9766C28.4922 17.0469 28.5234 17.1094 28.5625 17.1797L28.6562 17.3438L29.0156 17.9688L29.7344 19.2266L31.164 21.7422L31.1719 21.75L31.1797 21.7656C31.2422 21.8594 31.2656 21.9531 31.2656 22.0625C31.2656 22.1641 31.2344 22.2656 31.1719 22.3438V22.3438Z" fill="#115C36"/>
<path d="M18.4219 12.75C16.875 12.75 15.6172 14.0078 15.6172 15.5547C15.6172 16.4375 16.0313 17.2578 16.7422 17.7891V19.1875H20.0938V17.8047C20.8125 17.2734 21.2266 16.4531 21.2266 15.5547C21.2188 14.0078 19.9609 12.75 18.4219 12.75V12.75ZM19.4297 17.2109L19.2266 17.3359V18.3281H17.5937V17.3203L17.3906 17.1953C16.8125 16.8359 16.4688 16.2188 16.4688 15.5469C16.4688 14.4766 17.3437 13.6016 18.4141 13.6016C19.4844 13.6016 20.3594 14.4766 20.3594 15.5469C20.3594 16.2344 20.0156 16.8516 19.4297 17.2109ZM16.9375 19.7656H19.8828V20.625H16.9375V19.7656ZM17.2656 21.1953H19.5547V22.0547H17.2656V21.1953ZM17.5937 22.6172H19.2266V23.4766H17.5937V22.6172ZM22.5547 16L25.1953 16.3828V15.1328L22.5547 15.5078V16ZM14.2422 15.5078L11.6016 15.1328V16.3828L14.2422 16V15.5078ZM18.6484 11.6016L19.0234 8.95312H17.7734L18.1484 11.6016H18.6484ZM21.1641 18.8672L22.7656 21.0078L23.6484 20.1172L21.5078 18.5156L21.1641 18.8672ZM15.6406 12.6406L14.0313 10.5078L13.1484 11.3906L15.2891 12.9922L15.6406 12.6406ZM13.1484 20.1172L14.0313 21.0078L15.6406 18.8672L15.2891 18.5156L13.1484 20.1172ZM23.6484 11.3906L22.7656 10.5078L21.1641 12.6406L21.5078 12.9922L23.6484 11.3906Z" fill="#115C36"/>
</svg>
