<svg width="41" height="40" viewBox="0 0 41 40" fill="none" xmlns="http://www.w3.org/2000/svg">
<path d="M27.4217 24.9687L27.203 24.5391L25.7186 25.5312L23.7108 21.4531C25.0311 20.3359 25.9374 18.8203 26.3045 17.1016C26.742 15.0547 26.3592 12.9609 25.2264 11.2031C25.203 11.1641 25.1795 11.1328 25.1639 11.1094C22.7889 7.5078 17.9217 6.49218 14.2967 8.85936C10.6717 11.2266 9.63267 16.1094 11.992 19.7422C13.1327 21.5078 14.8983 22.7187 16.953 23.1562C17.4999 23.2734 18.0545 23.3281 18.6092 23.3281C19.8124 23.3281 20.9999 23.0469 22.0858 22.5078L24.9295 26.0391L23.6249 26.9062L27.0467 32.2344L27.3358 32.5234L30.7967 30.2187L27.4217 24.9687ZM17.1405 22.3203C15.3045 21.9297 13.7342 20.8516 12.7186 19.2734C10.617 16.0391 11.5389 11.6875 14.7733 9.57811C15.953 8.80468 17.2811 8.43749 18.5936 8.43749C20.8827 8.43749 23.1249 9.55468 24.4608 11.6094L24.492 11.6484C25.4999 13.2187 25.8436 15.0859 25.4608 16.9141C25.0702 18.75 23.992 20.3203 22.4139 21.3359C20.8436 22.3672 18.9686 22.7109 17.1405 22.3203V22.3203ZM24.8124 27.1641L26.9061 25.7656L29.6249 29.9844L27.5233 31.3828L24.8124 27.1641V27.1641Z" fill="#115C36"/>
</svg>
