<svg width="45" height="45" viewBox="0 0 45 45" fill="none" xmlns="http://www.w3.org/2000/svg">
<path d="M32.1855 21.3398C29.9619 20.9268 28.0371 21.0674 26.4902 21.4014C25.4355 19.7578 24.0205 18.8613 22.5 18.8613C20.9795 18.8613 19.5645 19.7666 18.5186 21.4014C16.9717 21.0586 15.0469 20.9268 12.8232 21.3311L12.4277 21.4014V31.9043L12.999 31.7988C18.5801 30.7617 22.1748 33.4512 22.21 33.4775L22.5088 33.7061L22.8076 33.4775C22.8428 33.4512 26.4463 30.7617 32.0186 31.79L32.5898 31.8955V21.4102L32.1855 21.3398V21.3398ZM22.5 19.8193C23.5986 19.8193 24.6533 20.4697 25.4971 21.6562C24.0117 22.1045 22.9834 22.7021 22.5 23.0098C22.0254 22.6934 20.9883 22.0957 19.4854 21.6475C20.2764 20.4258 21.4014 19.8193 22.5 19.8193ZM13.3857 30.7529V22.21C17.2354 21.6211 20.0918 22.7813 21.4102 23.4844L21.8936 32.1416C20.7422 31.5088 18.5537 30.5859 15.5742 30.5859C14.8799 30.5859 14.1504 30.6387 13.3857 30.7529ZM31.6143 30.7529C27.5186 30.1465 24.5303 31.3682 23.1152 32.1416L23.5986 23.4844C24.917 22.7725 27.7734 21.6211 31.623 22.2188V30.7529H31.6143ZM22.5 18.2637C24.249 18.2637 25.6816 16.8398 25.6816 15.082C25.6816 13.3242 24.2578 11.9004 22.5 11.9004C20.7422 11.9004 19.3184 13.3242 19.3184 15.082C19.3184 16.8398 20.751 18.2637 22.5 18.2637ZM22.5 12.8672C23.7217 12.8672 24.7148 13.8604 24.7148 15.082C24.7148 16.3037 23.7217 17.2969 22.5 17.2969C21.2783 17.2969 20.2852 16.3037 20.2852 15.082C20.2852 13.8604 21.2783 12.8672 22.5 12.8672Z" fill="#115C36"/>
</svg>
