<svg width="40" height="40" viewBox="0 0 40 40" fill="none" xmlns="http://www.w3.org/2000/svg">
<path d="M27.4999 20.9766C27.2109 20.6797 26.8202 20.5234 26.414 20.5234H25.9843V20.5C25.9843 19.6562 25.2968 18.9688 24.4531 18.9688H24.2656C24.0156 18.9688 23.7812 19.0312 23.5702 19.1328C23.4843 18.375 22.8359 17.7813 22.0468 17.7813H21.1796V15.9219C21.1796 15.0781 20.4921 14.3906 19.6484 14.3906H19.4062C18.5624 14.3906 17.8749 15.0781 17.8749 15.9219V23.4844C16.9296 22.6563 15.9921 22.2578 15.0781 22.2813C13.8359 22.3125 13.1406 23.1562 13.1093 23.1875L12.8749 23.4844L13.1406 23.7578C13.1796 23.7969 16.6796 27.375 17.9531 28.6484C19.1249 29.8203 19.4374 31.2734 19.4452 31.2891L19.5156 31.6328H26.4921L26.6093 31.5469C26.8984 31.3281 27.8671 29.9844 27.9452 22.0625C27.9452 21.6562 27.789 21.2656 27.4999 20.9766V20.9766ZM26.1249 30.7812H20.1952C20.0234 30.2187 19.5702 29.0547 18.5624 28.0469C17.5156 27 14.9609 24.3984 14.0702 23.4844C14.2968 23.3281 14.6562 23.1484 15.1249 23.1406C15.9921 23.125 16.9843 23.6953 17.9921 24.7969L18.7421 25.6172V15.9219C18.7421 15.5547 19.0468 15.25 19.414 15.25H19.6562C20.0234 15.25 20.3281 15.5547 20.3281 15.9219V22.8594H21.1874V18.6406H22.0546C22.4218 18.6406 22.7265 18.9453 22.7265 19.3125V22.8594H23.5937V20.5C23.5937 20.1328 23.8984 19.8281 24.2656 19.8281H24.4531C24.8202 19.8281 25.1249 20.1328 25.1249 20.5V22.8594H25.9843V21.3828H26.414C26.5937 21.3828 26.7656 21.4531 26.8906 21.5859C27.0156 21.7109 27.0859 21.8828 27.0859 22.0625C27.0156 28.5234 26.3515 30.3437 26.1249 30.7812V30.7812ZM19.039 12.7422L19.1093 13.1328H19.7499L19.8124 12.7422L20.4062 9.35156L20.5781 8.375H18.2812L18.4531 9.35156L19.039 12.7422ZM21.5781 13.4297L23.9765 10.9687L24.664 10.25L22.7734 8.96875L22.3671 9.85938L20.9374 13L20.7734 13.3516L21.3046 13.7188L21.5781 13.4297ZM17.2499 13.4297L17.5234 13.7188L18.0468 13.3516L17.8827 13L16.4609 9.85938L16.0468 8.96875L14.1562 10.25L14.8437 10.9687L17.2499 13.4297ZM16.3827 15.0156L16.7656 15.0938L17.0077 14.5078L16.6796 14.2891L13.7656 12.4688L12.9218 11.9375L12.0546 14.0547L13.0234 14.2734L16.3827 15.0156ZM21.8281 14.5859L22.0702 15.1719L22.4531 15.0938L25.8202 14.3516L26.789 14.1328L25.914 12.0156L25.0781 12.5469L22.164 14.3672L21.8281 14.5859Z" fill="#115C36"/>
</svg>
