<svg width="41" height="40" viewBox="0 0 41 40" fill="none" xmlns="http://www.w3.org/2000/svg">
<path d="M20.6483 20.5C22.6639 20.5 24.3123 18.8594 24.3123 16.8359C24.3123 14.8125 22.6717 13.1719 20.6483 13.1719C18.6326 13.1719 16.9842 14.8125 16.9842 16.8359C16.9842 18.8594 18.6326 20.5 20.6483 20.5V20.5ZM20.6483 19.6406C19.4842 19.6406 18.4842 18.9297 18.0623 17.9141L22.9686 18.3984C22.4686 19.1484 21.617 19.6406 20.6483 19.6406ZM17.8514 16.8359C17.8514 16.5156 17.9061 16.2109 18.0076 15.9219L23.4451 16.5234C23.4529 16.625 23.4608 16.7266 23.4608 16.8281C23.4608 17.0859 23.4217 17.3359 23.3592 17.5703L17.8592 17.0234C17.8514 16.9687 17.8514 16.9062 17.8514 16.8359V16.8359ZM20.6483 14.0391C21.7654 14.0391 22.7264 14.6953 23.1795 15.6406L18.4451 15.1094C18.9608 14.4609 19.7576 14.0391 20.6483 14.0391V14.0391ZM11.742 16.4922C13.7576 16.4922 15.4061 14.8516 15.4061 12.8281C15.4061 10.8125 13.7654 9.16406 11.742 9.16406C9.71857 9.16406 8.07794 10.8047 8.07794 12.8281C8.08575 14.8437 9.72638 16.4922 11.742 16.4922ZM11.742 10.0234C13.2889 10.0234 14.5467 11.2812 14.5467 12.8281C14.5467 14.375 13.2889 15.6328 11.742 15.6328C10.1951 15.6328 8.93732 14.375 8.93732 12.8281C8.94513 11.2812 10.2029 10.0234 11.742 10.0234ZM26.0233 27.3984C25.8201 26.5078 25.5233 25.625 25.0936 24.8047C24.6639 23.9844 24.0936 23.2187 23.3514 22.6094C22.9764 22.3047 22.5623 22.0469 22.1014 21.8672C21.8748 21.7812 21.6326 21.7031 21.3904 21.6563C21.1483 21.6094 20.8983 21.5859 20.6483 21.5859C20.3983 21.5859 20.1483 21.6094 19.9061 21.6563C19.6639 21.7031 19.4217 21.7734 19.1951 21.8672C18.7342 22.0469 18.3201 22.3047 17.9451 22.6094C17.2029 23.2187 16.6326 23.9844 16.2029 24.8047C15.7733 25.625 15.4686 26.5 15.2654 27.3984C15.0701 28.2969 14.9764 29.2109 14.9686 30.1172L14.9764 30.5547H15.3983L26.3123 30.5469V30.1172C26.3123 29.2109 26.2186 28.2969 26.0233 27.3984ZM25.1873 27.5859C25.2264 27.7656 25.2654 27.9531 25.2967 28.1406L16.1873 27.3281C16.2889 26.9219 16.4139 26.5156 16.5623 26.125L24.992 26.8594C25.0623 27.1016 25.1326 27.3438 25.1873 27.5859V27.5859ZM19.5154 22.6797C19.8826 22.5391 20.2654 22.4609 20.6483 22.4609C21.0311 22.4609 21.4217 22.5391 21.7811 22.6797C22.1483 22.8203 22.492 23.0313 22.8045 23.2891C22.9842 23.4297 23.1483 23.5938 23.3045 23.7578L18.4686 23.3125C18.4764 23.3047 18.4842 23.2969 18.4998 23.2891C18.8123 23.0313 19.1561 22.8203 19.5154 22.6797ZM17.6951 24.1016L24.0154 24.6797C24.1248 24.8516 24.2264 25.0313 24.3201 25.2109C24.4529 25.4531 24.5701 25.7109 24.6717 25.9687L16.9295 25.2891C16.9451 25.2656 16.9529 25.2344 16.9686 25.2109C17.1873 24.8203 17.4217 24.4453 17.6951 24.1016V24.1016ZM15.8826 29.2656C15.8826 29.2656 15.9061 28.8125 16.0154 28.1719L25.4061 29.0156C25.4373 29.3828 25.4608 29.7578 25.4608 30.125L15.8826 29.2656V29.2656ZM15.7264 21.5391C15.8358 21.4375 15.9451 21.3359 16.0623 21.2422C16.1795 21.1484 16.2967 21.0625 16.4139 20.9766C16.3514 20.8437 16.2889 20.7031 16.2186 20.5703C15.7889 19.75 15.2186 18.9844 14.4764 18.375C14.1014 18.0703 13.6873 17.8125 13.2264 17.6328C12.9998 17.5469 12.7576 17.4687 12.5154 17.4219C12.2733 17.375 12.0233 17.3516 11.7733 17.3516C11.5233 17.3516 11.2733 17.375 11.0311 17.4219C10.7889 17.4687 10.5467 17.5391 10.3201 17.6328C9.85919 17.8125 9.44513 18.0703 9.07013 18.375C8.32794 18.9844 7.75763 19.75 7.32794 20.5703C6.89825 21.3906 6.59357 22.2656 6.39044 23.1641C6.19513 24.0625 6.10138 24.9766 6.09357 25.8828L6.10138 26.3203H13.3123C13.3279 26.2266 13.3514 26.125 13.3748 26.0313C13.4061 25.8906 13.4373 25.75 13.4764 25.6094L6.99982 25.0312C6.99982 25.0312 7.03888 24.2891 7.242 23.3516C7.4295 22.5234 7.71857 21.7187 8.10919 20.9766C8.49982 20.2344 8.99982 19.5547 9.63263 19.0469C9.94513 18.7891 10.2889 18.5859 10.6561 18.4375C11.0233 18.2969 11.4061 18.2187 11.7889 18.2187C12.1717 18.2187 12.5623 18.2969 12.9217 18.4375C13.2889 18.5781 13.6326 18.7891 13.9451 19.0469C14.5701 19.5547 15.0779 20.2344 15.4686 20.9766C15.5545 21.1641 15.6483 21.3516 15.7264 21.5391ZM29.5467 16.4922C31.5623 16.4922 33.2108 14.8516 33.2108 12.8281C33.2108 10.8125 31.5701 9.16406 29.5467 9.16406C27.5311 9.16406 25.8826 10.8047 25.8826 12.8281C25.8826 14.8437 27.5233 16.4922 29.5467 16.4922ZM34.8904 23.1641C34.6873 22.2734 34.3904 21.3906 33.9529 20.5703C33.5233 19.75 32.9529 18.9844 32.2108 18.375C31.8358 18.0703 31.4217 17.8203 30.9608 17.6328C30.7342 17.5469 30.492 17.4766 30.2498 17.4219C30.0076 17.375 29.7576 17.3516 29.5076 17.3516C29.2576 17.3516 29.0076 17.375 28.7654 17.4219C28.5233 17.4687 28.2811 17.5391 28.0545 17.6328C27.5936 17.8125 27.1795 18.0703 26.8045 18.375C26.5936 18.5469 26.3904 18.7344 26.2108 18.9375C25.2733 19.8594 24.867 20.9766 24.867 20.9766C24.9608 21.0391 25.0545 21.1094 25.1483 21.1797C25.7811 21.6953 27.3201 23.2109 27.9608 26.3125H35.1717L35.1795 25.875C35.1795 24.9766 35.0858 24.0625 34.8904 23.1641Z" fill="#115C36"/>
</svg>
