<svg width="20" height="21" viewBox="0 0 20 21" fill="none" xmlns="http://www.w3.org/2000/svg">
<path d="M9.35156 0.0546873H0V8.67969H9.35938V0.0546873H9.35156ZM8.49219 7.82031H0.859375V0.914062H8.5V7.82031H8.49219ZM8.49219 19.2891H0.859375V12.375H8.28125V11.5156H0V20.1484H9.35156V17.3828H8.49219V19.2891ZM12.2891 0V15.1172L15.75 20.5703L19.2188 15.125V0H12.2891ZM18.3594 0.859375V13.9531C16.8594 13.0547 15.4766 13.1484 14.5312 13.4141C13.9531 13.5781 13.4844 13.8125 13.1484 14.0156V5.375H17.2422V4.51563H13.1484V3.64062H17.2422V2.78125H13.1484V0.859375H18.3594ZM13.2344 14.9922C13.4297 14.8438 13.9844 14.4531 14.7656 14.2344C16 13.8906 17.1875 14.125 18.3125 14.9453L15.7578 18.9609L13.2344 14.9922Z" fill="#115C36"/>
<path d="M4.67187 17.5391L3.13281 14.8437L1.875 15.8516L4.41406 18.1719L4.61719 18.3594L4.8125 18.1953L11.5 12.5781L10.1719 11.2266L4.67187 17.5391Z" fill="#115C36"/>
</svg>
