<svg width="41" height="40" viewBox="0 0 41 40" fill="none" xmlns="http://www.w3.org/2000/svg">
<path d="M31.8752 11.4922L29.8596 12.2187C29.4142 12.3203 28.9533 12.3125 28.508 12.2109L25.1799 11.6875L25.1564 11.6797C24.4611 11.5078 23.7267 11.625 23.1096 11.9843L21.4611 11.3672C20.883 11.1406 20.2346 11.1328 19.6486 11.3437C18.3674 11.8047 16.0783 12.625 15.0861 12.9687C13.8674 13.3984 12.2033 12.8359 12.1877 12.8281L10.008 11.8672L5.08612 20.3047L10.0705 22.8828C10.0627 23.0078 10.0627 23.1328 10.0861 23.2578C10.1564 23.6328 10.3674 23.9609 10.6799 24.1797L11.0939 24.4687C11.3205 24.625 11.5861 24.7109 11.8439 24.7187C11.8361 24.8437 11.8361 24.9765 11.8596 25.1093C11.9299 25.4922 12.1408 25.8203 12.4611 26.0468L12.883 26.3437C13.133 26.5156 13.4221 26.6015 13.7111 26.6015C14.0627 26.6015 14.4064 26.4765 14.6799 26.2343C14.7814 26.5078 14.9611 26.7422 15.2111 26.914L15.633 27.2109C15.883 27.3828 16.1642 27.4687 16.4611 27.4687C16.5471 27.4687 16.633 27.4609 16.7189 27.4453C16.7658 27.4375 16.8049 27.4297 16.8517 27.414C16.9377 27.7578 17.1408 28.0547 17.4299 28.2578L17.8517 28.5547C18.1017 28.7265 18.3908 28.8125 18.6799 28.8125C19.1408 28.8125 19.5939 28.5937 19.8752 28.1875L20.8205 26.8281L23.2814 28.3203C23.5002 28.4531 23.7502 28.5234 24.0002 28.5234C24.1096 28.5234 24.2267 28.5078 24.3361 28.4843C24.6955 28.3984 25.008 28.1718 25.1955 27.8515C25.3127 27.6562 25.383 27.4453 25.3986 27.2265C25.5783 27.289 25.7736 27.3281 25.9611 27.3281C26.0939 27.3281 26.2267 27.3125 26.3674 27.2812C26.8049 27.1718 27.1721 26.9062 27.4064 26.5234L27.4377 26.4687C27.6252 26.1562 27.7033 25.8125 27.6721 25.4765C27.7424 25.4843 27.8205 25.4922 27.8908 25.4922C28.0236 25.4922 28.1564 25.4765 28.2971 25.4453C28.7346 25.3359 29.1017 25.0703 29.3361 24.6875L29.3674 24.6328C29.5549 24.3203 29.633 23.9687 29.6017 23.6328C29.7189 23.6562 29.8361 23.6718 29.9533 23.6718C30.5236 23.6718 31.0783 23.3828 31.3908 22.8672L31.4221 22.8125C31.6096 22.5 31.6877 22.1406 31.6564 21.789C31.7814 21.8125 31.9299 21.8203 32.0861 21.8203C32.1486 21.8203 32.2111 21.8203 32.2814 21.8125C33.383 21.7422 34.6486 21.1172 36.0392 19.9375L36.2814 19.7343L31.8752 11.4922V11.4922ZM11.1721 23.4687C11.0471 23.3828 10.9611 23.25 10.9377 23.1015C10.9142 22.9531 10.9455 22.7968 11.0314 22.6718L12.0002 21.2734C12.1799 21.0156 12.5314 20.9531 12.7892 21.1328L13.2033 21.4218C13.3283 21.5078 13.4142 21.6406 13.4377 21.789C13.4611 21.9218 13.4377 22.0625 13.3674 22.1797L12.3517 23.6406C12.1642 23.875 11.8283 23.9297 11.5861 23.7578L11.1721 23.4687V23.4687ZM13.8283 25.7187C13.6721 25.75 13.5158 25.7109 13.383 25.625L12.9611 25.3281C12.8283 25.2343 12.7424 25.1015 12.7189 24.9453C12.6877 24.789 12.7267 24.6328 12.8127 24.5L13.0549 24.1484C13.0705 24.1328 13.0783 24.1172 13.0861 24.1015L14.0549 22.7031C14.0627 22.6953 14.0705 22.6797 14.0783 22.6718L15.133 21.1484C15.3205 20.8828 15.6877 20.8125 15.9611 21L16.383 21.2968C16.6486 21.4843 16.7189 21.8515 16.5314 22.125L14.2033 25.4765C14.1174 25.6015 13.9846 25.6953 13.8283 25.7187V25.7187ZM16.5783 26.5859C16.4221 26.6172 16.2658 26.5781 16.133 26.4922L15.7111 26.1953C15.5783 26.1015 15.4924 25.9687 15.4689 25.8125C15.4377 25.6562 15.4767 25.5 15.5627 25.3672L17.2971 22.8672C17.4846 22.6015 17.8517 22.5312 18.1252 22.7187L18.5471 23.0156C18.6799 23.1093 18.7658 23.2422 18.7892 23.3984C18.8205 23.5547 18.7814 23.7109 18.6955 23.8437L16.9611 26.3437C16.8674 26.4687 16.7346 26.5625 16.5783 26.5859V26.5859ZM19.1799 27.6875C18.9924 27.9531 18.6252 28.0234 18.3517 27.8359L17.9299 27.539C17.7971 27.4453 17.7111 27.3125 17.6877 27.1562C17.6642 27 17.6955 26.8437 17.7814 26.7109L19.3127 24.5078C19.4064 24.375 19.5392 24.289 19.6955 24.2656C19.7346 24.2578 19.7658 24.2578 19.8049 24.2578C19.9221 24.2578 20.0392 24.2968 20.1408 24.3672L20.5627 24.664C20.6955 24.7578 20.7814 24.8906 20.8049 25.0468C20.8361 25.2031 20.7971 25.3593 20.7111 25.4922L19.1799 27.6875V27.6875ZM30.7033 22.3437L30.6721 22.3984C30.5549 22.5859 30.3752 22.7187 30.1642 22.7734C29.9533 22.8281 29.7267 22.789 29.5392 22.6797L28.2189 21.9687L23.7033 19.3125L23.2658 20.0547L28.3596 23.039C28.7502 23.2734 28.8674 23.7812 28.633 24.164L28.6017 24.2187C28.4846 24.4062 28.3049 24.539 28.0939 24.5937C27.883 24.6484 27.6564 24.6093 27.4689 24.4922L22.9533 21.8281L22.5158 22.5703L26.4221 24.875C26.8127 25.1093 26.9299 25.6172 26.6955 26L26.6642 26.0547C26.5471 26.2422 26.3674 26.375 26.1564 26.4297C25.9455 26.4843 25.7267 26.4453 25.5392 26.3359L22.2424 24.2343L21.7814 24.9609L24.3205 26.5781L24.3049 26.6015C24.4611 26.6953 24.508 26.8515 24.5314 26.9453C24.5627 27.1015 24.5392 27.2656 24.4533 27.3984C24.3752 27.5234 24.258 27.6093 24.1174 27.6406C23.9767 27.6718 23.8361 27.6562 23.7111 27.5781L21.3127 26.1093L21.4064 25.9687C21.6252 25.6484 21.7111 25.2656 21.6408 24.8828C21.5705 24.5 21.3596 24.1718 21.0392 23.9453L20.6174 23.6484C20.3283 23.4531 19.9924 23.3593 19.6486 23.3984C19.6486 23.3437 19.6408 23.289 19.633 23.2343C19.5627 22.8515 19.3517 22.5234 19.0314 22.2968L18.6096 22C18.2736 21.7656 17.8752 21.6953 17.5002 21.7656C17.5002 21.3047 17.2814 20.8515 16.8752 20.5703L16.4533 20.2734C15.7971 19.8203 14.8908 19.9765 14.4299 20.6406L14.1017 21.1172C14.0002 20.9531 13.8674 20.8125 13.7033 20.6953L13.2892 20.4062C12.6408 19.9609 11.7502 20.1172 11.2971 20.7656L10.3986 22.0625L6.4455 20.039L12.2346 13.7187C12.8439 13.8828 14.2267 14.1718 15.383 13.7656C16.3752 13.4218 18.6721 12.5937 19.9533 12.1328C20.3439 11.9922 20.7736 12 21.1642 12.1484L22.3127 12.5937L18.5939 15.7031L18.5861 15.7109C17.7892 16.3984 17.7033 16.9765 17.7033 17.164C17.6564 17.6328 17.8205 18.1172 18.1486 18.4922C18.4611 18.8437 18.883 19.0547 19.2971 19.0625C19.9611 19.0703 20.5158 18.7187 20.7814 18.539C20.8127 18.5234 20.8361 18.5 20.8596 18.4922L22.8283 17.2968C23.1877 17.0781 23.6252 17.0781 23.9846 17.2968L25.1799 18.0156L30.4299 21.2031C30.6174 21.3203 30.7502 21.5 30.8049 21.7109C30.8517 21.9375 30.8127 22.1562 30.7033 22.3437ZM31.4064 20.7812L31.3986 20.7734L24.4221 16.5703C23.7892 16.1875 23.008 16.1875 22.3752 16.5703L20.4064 17.7656C20.3752 17.7812 20.3439 17.8047 20.3049 17.8281C20.0939 17.9609 19.7033 18.2187 19.2971 18.2109C19.1252 18.2109 18.9299 18.1015 18.7814 17.9297C18.6096 17.7343 18.5236 17.4843 18.5471 17.2422L18.5549 17.2343L18.5471 17.1953C18.5549 17.1328 18.633 16.8125 19.133 16.3828L23.3049 12.8984C23.758 12.5234 24.3674 12.3828 24.9455 12.5156L28.2736 13.039L28.2971 13.0468C28.8752 13.1875 29.4924 13.1875 30.0783 13.0547L35.258 19.4609C32.7111 21.5156 31.5002 20.8359 31.4064 20.7812V20.7812Z" fill="#115C36"/>
</svg>
