<svg width="40" height="40" viewBox="0 0 40 40" fill="none" xmlns="http://www.w3.org/2000/svg">
<path d="M20.3515 30.4531L21.164 30.1406C25.1562 28.6406 28.7968 28.6953 32.2343 30.3047L33.4062 30.8594V11.9141H30.8515V9L30.164 8.89844C26.0312 8.23438 22.7421 9.14063 20.3671 11.5703C17.9765 9.14063 14.6874 8.23438 10.5703 8.89844L9.88275 9V11.9141H7.32806V30.8438L8.49994 30.2891C11.9374 28.6797 15.5781 28.625 19.5703 30.125L20.3515 30.4531ZM31.7499 13.5703V28.3203C28.414 27.0703 24.9453 27.1016 21.2031 28.3828V27.9922C23.3046 25.4531 26.1484 24.6094 29.8437 25.4375L30.8515 25.6641V13.5703H31.7499ZM21.1874 13.0859C23.0937 10.8906 25.7265 10.0234 29.1796 10.4297V23.6016C25.9921 23.1172 23.3203 23.7969 21.1874 25.6172V13.0859ZM11.5156 10.4297C14.9687 10.0234 17.6015 10.8984 19.5078 13.0859V25.6172C17.8124 24.1719 15.7812 23.4531 13.4374 23.4531C12.8203 23.4531 12.1718 23.5 11.5156 23.6016V10.4297ZM8.94525 28.3047V13.5703H9.84369V25.6328L10.8515 25.4063C14.5624 24.5938 17.3828 25.4219 19.4921 27.9609V28.3516C15.7499 27.0859 12.2812 27.0703 8.94525 28.3047Z" fill="#115C36"/>
<path d="M18.2891 14.9843L18.3672 13.1796C18.2735 13.1015 16.086 11.2109 13.1719 11.7109L12.3594 11.8437L12.3751 13.539C14.3985 12.9687 16.3985 13.1015 18.2891 14.9843V14.9843Z" fill="#115C36"/>
<path d="M18.2891 19.2657L18.3672 17.461C18.2735 17.3829 16.086 15.4923 13.1719 15.9923L12.3594 16.1251L12.3751 17.8204C14.3985 17.2344 16.3985 17.3673 18.2891 19.2657V19.2657Z" fill="#115C36"/>
<path d="M18.2891 23.5312L18.3672 21.7265C18.2735 21.6484 16.086 19.7578 13.1719 20.2578L12.3594 20.3906L12.3751 22.0859C14.3985 21.5156 16.3985 21.6484 18.2891 23.5312V23.5312Z" fill="#115C36"/>
<path d="M22.3594 14.9843L22.2813 13.1796C22.3751 13.1015 24.5626 11.2109 27.4766 11.7109L28.2891 11.8437L28.2735 13.539C26.2501 12.9687 24.2579 13.1015 22.3594 14.9843V14.9843Z" fill="#115C36"/>
<path d="M22.3594 19.2657L22.2813 17.461C22.3751 17.3829 24.5626 15.4923 27.4766 15.9923L28.2891 16.1251L28.2735 17.8204C26.2501 17.2344 24.2579 17.3673 22.3594 19.2657V19.2657Z" fill="#115C36"/>
<path d="M22.3594 23.5312L22.2813 21.7265C22.3751 21.6484 24.5626 19.7578 27.4766 20.2578L28.2891 20.3906L28.2735 22.0859C26.2501 21.5156 24.2579 21.6484 22.3594 23.5312V23.5312Z" fill="#115C36"/>
</svg>
