<svg width="44" height="44" viewBox="0 0 44 44" fill="none" xmlns="http://www.w3.org/2000/svg">
<path d="M29.4076 27.4655L29.167 26.9928L27.5342 28.0842L25.3256 23.5983C26.778 22.3694 27.7748 20.7022 28.1787 18.8116C28.66 16.56 28.2389 14.2569 26.9928 12.3233C26.967 12.2803 26.9412 12.246 26.924 12.2202C24.3115 8.25846 18.9576 7.14127 14.9701 9.74518C10.9826 12.3491 9.83967 17.7202 12.435 21.7163C13.6897 23.6585 15.6319 24.9905 17.892 25.4717C18.4936 25.6006 19.1037 25.6608 19.7139 25.6608C21.0373 25.6608 22.3436 25.3514 23.5381 24.7585L26.6662 28.6428L25.2311 29.5967L28.9951 35.4577L29.3131 35.7757L33.1201 33.2405L29.4076 27.4655ZM18.0983 24.5522C16.0787 24.1225 14.3514 22.9366 13.2342 21.2006C10.9225 17.6428 11.9365 12.8561 15.4944 10.5358C16.792 9.68502 18.2529 9.28112 19.6967 9.28112C22.2147 9.28112 24.6811 10.51 26.1506 12.7702L26.185 12.8131C27.2936 14.5405 27.6717 16.5944 27.2506 18.6053C26.8209 20.6249 25.635 22.3522 23.899 23.4694C22.1717 24.6038 20.1092 24.9819 18.0983 24.5522ZM26.5373 29.8803L28.8405 28.3421L31.8311 32.9827L29.5194 34.521L26.5373 29.8803Z" fill="#115C36"/>
</svg>
