<svg width="40" height="40" viewBox="0 0 40 40" fill="none" xmlns="http://www.w3.org/2000/svg">
<path d="M34.0779 23.6797C34.0779 22.6328 33.2264 21.7812 32.1795 21.7812C31.1326 21.7812 30.2811 22.6328 30.2811 23.6797C30.2811 24.6875 31.0701 25.5156 32.0623 25.5703C32.0701 26.1641 31.9451 26.6875 31.6717 27.1328C31.2576 27.8125 30.5311 28.2812 29.5154 28.5234C28.4139 28.7891 27.0701 28.7734 25.5701 28.5156C26.0545 27.0703 26.4139 25.4531 26.6248 23.7344C28.5311 22.2656 30.117 20.6484 31.2498 19.0313C33.0233 16.4922 33.4686 14.2109 32.5076 12.6016C31.5467 10.9922 29.3279 10.2891 26.2576 10.6406C25.9451 10.6719 25.6326 10.7187 25.3123 10.7734C25.1951 10.4687 25.0779 10.1797 24.9451 9.89844C23.6717 7.07812 21.9295 5.53125 20.0545 5.53125C19.3514 5.53125 18.6717 5.75 18.0154 6.17969C17.7029 5.95312 17.3123 5.8125 16.8983 5.8125C15.8514 5.8125 14.9998 6.66406 14.9998 7.71094C14.9998 8.75781 15.8514 9.60937 16.8983 9.60937C17.9451 9.60937 18.7967 8.75781 18.7967 7.71094C18.7967 7.39844 18.7186 7.10156 18.5858 6.83594C19.0701 6.53906 19.5623 6.39062 20.0545 6.39062C21.5545 6.39062 23.0545 7.79688 24.1639 10.2578C24.2654 10.4844 24.3592 10.7109 24.4529 10.9531C23.0545 11.2656 21.5779 11.75 20.0936 12.3906C16.4217 10.7578 12.8436 10.0938 10.3983 10.6875C9.14826 10.9844 8.24982 11.5859 7.71075 12.4609C6.73419 14.0625 7.14825 16.3516 8.89044 18.9062C10.0076 20.5469 11.5858 22.1953 13.4842 23.6953C13.6873 25.3984 14.0311 27 14.5076 28.4297C14.2576 28.4687 14.0076 28.5078 13.7654 28.5313C11.0858 28.8359 9.10919 28.2656 8.34357 26.9844C8.03888 26.4687 7.9295 26.1797 7.97638 25.5781C8.94513 25.4922 9.71075 24.6797 9.71075 23.6875C9.71075 22.6406 8.85919 21.7891 7.81232 21.7891C6.76544 21.7891 5.91388 22.6406 5.91388 23.6875C5.91388 24.4922 6.41388 25.1797 7.12482 25.4531C7.04669 26.3125 7.21857 26.7813 7.60138 27.4219C8.39825 28.7656 10.0701 29.4688 12.3826 29.4688C12.8514 29.4688 13.3358 29.4375 13.8514 29.3828C14.1561 29.3516 14.4764 29.3047 14.7889 29.25C14.9061 29.5469 15.0233 29.8437 15.1561 30.125C16.4295 32.9375 18.1639 34.4922 20.0467 34.4922C21.9295 34.4922 23.6639 32.9375 24.9373 30.125C25.0545 29.8672 25.1639 29.6094 25.2654 29.3359C26.1404 29.4922 26.9686 29.5781 27.742 29.5781C28.4529 29.5781 29.1092 29.5078 29.7029 29.3672C30.9529 29.0703 31.8592 28.4688 32.3983 27.5938C32.7733 26.9766 32.9451 26.25 32.9139 25.4375C33.6014 25.1328 34.0779 24.4609 34.0779 23.6797V23.6797ZM16.8904 8.74219C16.3201 8.74219 15.8514 8.27344 15.8514 7.70312C15.8514 7.13281 16.3201 6.66406 16.8904 6.66406C17.4608 6.66406 17.9295 7.13281 17.9295 7.70312C17.9295 8.27344 17.4608 8.74219 16.8904 8.74219ZM6.78107 23.6797C6.78107 23.1094 7.24982 22.6406 7.82013 22.6406C8.39044 22.6406 8.85919 23.1094 8.85919 23.6797C8.85919 24.25 8.39044 24.7187 7.82013 24.7187C7.24982 24.7109 6.78107 24.25 6.78107 23.6797ZM24.7186 28.3438C23.5545 28.0781 22.3123 27.6797 21.0545 27.1562C21.8826 26.7578 22.7108 26.3125 23.5311 25.8281C24.2733 25.3906 24.9842 24.9219 25.6639 24.4375C25.4451 25.8437 25.1248 27.1641 24.7186 28.3438ZM14.1248 20.0078C14.1248 18.8906 14.1873 17.7969 14.2967 16.7422C15.1716 16.0837 16.0818 15.4734 17.0233 14.9141C18.0389 14.3125 19.0701 13.7734 20.0936 13.3203C21.1092 13.7891 22.1404 14.3437 23.1561 14.9609C24.0936 15.5391 24.9842 16.1484 25.8201 16.7969C25.9295 17.8359 25.992 18.9141 25.992 20.0078C25.992 21.125 25.9295 22.2187 25.8201 23.2734C24.9686 23.9141 24.0545 24.5234 23.0936 25.1016C22.0701 25.7109 21.0389 26.2422 20.0076 26.7031C18.992 26.2344 17.9764 25.6875 16.9686 25.0703C16.0233 24.4922 15.1326 23.875 14.2967 23.2266C14.1795 22.1797 14.1248 21.1016 14.1248 20.0078ZM26.742 22.5391C26.8123 21.7109 26.8436 20.8672 26.8436 20.0078C26.8436 19.1719 26.8123 18.3516 26.7498 17.5469C27.7108 18.3594 28.5779 19.2031 29.3279 20.0781C28.5779 20.9141 27.7108 21.7422 26.742 22.5391ZM26.3436 11.4844C29.0233 11.1797 30.9998 11.75 31.7654 13.0312C32.5311 14.3203 32.0858 16.3203 30.5467 18.5312C30.3436 18.8203 30.1248 19.1094 29.8904 19.3984C28.9529 18.3359 27.8592 17.2969 26.6326 16.3281C26.4295 14.625 26.0779 13.0234 25.6014 11.5859C25.8514 11.5469 26.1014 11.5156 26.3436 11.4844V11.4844ZM24.7498 11.75C25.1483 12.9219 25.4529 14.2187 25.6639 15.6016C25.0076 15.125 24.3201 14.6641 23.6014 14.2266C22.7889 13.7266 21.9686 13.2812 21.1483 12.875C22.3748 12.375 23.5858 12 24.7498 11.75V11.75ZM16.5858 14.1719C15.8436 14.6094 15.1326 15.0781 14.4529 15.5625C14.6639 14.1797 14.9764 12.8672 15.3826 11.6719C16.5467 11.9297 17.7811 12.3281 19.0389 12.8516C18.2186 13.25 17.3983 13.6875 16.5858 14.1719V14.1719ZM8.44513 12.8906C8.85919 12.2109 9.58575 11.75 10.6014 11.5C11.6951 11.2344 13.0467 11.25 14.5389 11.5C14.0545 12.9531 13.7029 14.5625 13.492 16.2734C12.2733 17.2188 11.1717 18.2266 10.2342 19.2656C10.0076 18.9766 9.79669 18.6875 9.60138 18.4063C8.08575 16.1797 7.66388 14.1719 8.44513 12.8906V12.8906ZM10.7811 19.9453C11.5389 19.0938 12.4061 18.2656 13.367 17.4766C13.2967 18.3047 13.2654 19.1484 13.2654 20.0078C13.2654 20.8438 13.2967 21.6719 13.3592 22.4766C12.3904 21.6563 11.5233 20.8047 10.7811 19.9453V19.9453ZM14.4451 24.4141C15.1014 24.8984 15.7967 25.3594 16.5154 25.7969C17.3201 26.2891 18.1326 26.7422 18.9451 27.1406C17.7186 27.6328 16.5076 28.0078 15.3514 28.25C14.9608 27.0859 14.6561 25.7891 14.4451 24.4141V24.4141ZM24.1639 29.7578C23.0389 32.25 21.5779 33.6172 20.0545 33.6172C18.5311 33.6172 17.0779 32.2422 15.9451 29.7578C15.8436 29.5312 15.7498 29.3047 15.6561 29.0703C17.0545 28.7656 18.5154 28.2812 19.9998 27.6406C21.5154 28.3203 23.0076 28.8281 24.4217 29.1484C24.3358 29.3594 24.2498 29.5625 24.1639 29.7578ZM32.1795 24.7109C31.6092 24.7109 31.1404 24.2422 31.1404 23.6719C31.1404 23.1016 31.6092 22.6328 32.1795 22.6328C32.7498 22.6328 33.2186 23.1016 33.2186 23.6719C33.2186 24.2422 32.7498 24.7109 32.1795 24.7109Z" fill="#115C36"/>
<path d="M19.9999 18.5156C21.078 18.5156 21.9609 17.6328 21.9609 16.5547C21.9609 15.4766 21.078 14.5938 19.9999 14.5938C18.9218 14.5938 18.039 15.4766 18.039 16.5547C18.039 17.6328 18.9218 18.5156 19.9999 18.5156ZM19.9999 15.4531C20.6093 15.4531 21.1015 15.9453 21.1015 16.5547C21.1015 17.1641 20.6093 17.6562 19.9999 17.6562C19.3905 17.6562 18.8984 17.1641 18.8984 16.5547C18.8984 15.9453 19.3905 15.4531 19.9999 15.4531ZM23.328 23.539C23.328 22.2422 22.9999 21.0078 22.414 20.0781C21.789 19.0859 20.9296 18.5391 20.0077 18.5391C19.0859 18.5391 18.2265 19.0859 17.6015 20.0781C17.0077 21.0078 16.6874 22.2344 16.6874 23.539V23.9687H23.3359V23.539H23.328ZM17.6952 22.1094C17.6952 22.1094 18.078 19.5078 19.9999 19.3984C21.2499 19.3281 22.3202 21.0547 22.453 23.1094L17.6952 22.1094Z" fill="#115C36"/>
</svg>
