<svg width="40" height="40" viewBox="0 0 40 40" fill="none" xmlns="http://www.w3.org/2000/svg">
<path d="M19.9608 21.25C17.7108 21.25 15.8827 19.4219 15.8827 17.1719C15.8827 14.9219 17.7108 13.0938 19.9608 13.0938C22.2108 13.0938 24.039 14.9219 24.039 17.1719C24.039 19.4219 22.2108 21.25 19.9608 21.25ZM19.9608 13.9531C18.1874 13.9531 16.7421 15.3984 16.7421 17.1719C16.7421 18.9453 18.1874 20.3906 19.9608 20.3906C21.7343 20.3906 23.1796 18.9453 23.1796 17.1719C23.1796 15.3984 21.7421 13.9531 19.9608 13.9531V13.9531ZM26.5155 32.1797H13.4687V31.75C13.4687 29.3047 14.1327 26.9922 15.328 25.25C16.5624 23.4609 18.2187 22.4766 19.9921 22.4766C21.7655 22.4766 23.4218 23.4609 24.6562 25.25C25.8593 26.9922 26.5155 29.2969 26.5155 31.75V32.1797ZM25.6483 31.3203C25.4999 26.8828 23.0155 23.3359 19.9921 23.3359C15.9608 23.3359 14.4999 29.7031 14.4999 29.7031L25.6483 31.3203ZM10.4062 20.2031C8.98428 20.2031 7.83585 19.0469 7.83585 17.6328C7.83585 16.2109 8.9921 15.0625 10.4062 15.0625C11.8202 15.0625 12.9765 16.2188 12.9765 17.6328C12.9765 19.0469 11.828 20.2031 10.4062 20.2031ZM10.4062 15.9141C9.46085 15.9141 8.69522 16.6797 8.69522 17.625C8.69522 18.5703 9.46085 19.3359 10.4062 19.3359C11.3515 19.3359 12.1171 18.5703 12.1171 17.625C12.1171 16.6797 11.3515 15.9141 10.4062 15.9141ZM12.664 26.6172H6.41397V26.1875C6.41397 24.7109 6.81241 23.3203 7.53897 22.2734C8.29678 21.1719 9.32022 20.5703 10.4218 20.5703C11.914 20.5703 13.2655 21.7109 13.9608 23.5469L14.1093 23.9453L13.3046 24.25L13.1562 23.8516C12.5937 22.3594 11.5468 21.4297 10.4218 21.4297C8.13272 21.4297 7.48428 24.5 7.48428 24.5L12.664 25.7656V26.6172V26.6172ZM27.0233 17.625C27.0233 16.2031 28.1796 15.0547 29.5937 15.0547C31.0077 15.0547 32.164 16.2109 32.164 17.625C32.164 19.0469 31.0077 20.1953 29.5937 20.1953C28.1796 20.1953 27.0233 19.0469 27.0233 17.625ZM27.8827 17.625C27.8827 18.5703 28.6483 19.3359 29.5937 19.3359C30.539 19.3359 31.3046 18.5703 31.3046 17.625C31.3046 16.6797 30.539 15.9141 29.5937 15.9141C28.6483 15.9141 27.8827 16.6797 27.8827 17.625ZM27.3358 26.6172H33.5858V26.1875C33.5858 24.7109 33.1874 23.3203 32.4608 22.2734C31.703 21.1719 30.6796 20.5703 29.578 20.5703C28.0858 20.5703 26.7343 21.7109 26.039 23.5469L25.8905 23.9453L26.6952 24.25L26.8437 23.8516C27.4062 22.3594 28.453 21.4297 29.578 21.4297C31.8671 21.4297 32.5155 24.5 32.5155 24.5L27.3358 25.7656V26.6172V26.6172ZM20.7265 7.82031L20.2655 10.5781L20.1796 11.0938H19.3202L19.2343 10.5781L18.7733 7.82031L18.6093 6.84375H20.8905L20.7265 7.82031ZM26.2108 10.3047L23.9374 11.9453L23.5155 12.25L22.9062 11.6484L23.2108 11.2266L24.8202 8.92969L25.3905 8.125L27.0077 9.72656L26.2108 10.3047ZM14.6874 9.07031L16.2968 11.3594L16.5937 11.7813L15.9843 12.3828L15.5624 12.0781L13.2968 10.4375L12.4921 9.85937L14.1171 8.25781L14.6874 9.07031Z" fill="#115C36"/>
</svg>
