<svg width="40" height="40" viewBox="0 0 40 40" fill="none" xmlns="http://www.w3.org/2000/svg">
<path d="M19.7422 9.96094H10.3906V18.5859H19.75V9.96094H19.7422ZM18.8828 17.7266H11.25V10.8203H18.8906V17.7266H18.8828ZM18.8828 29.1953H11.25V22.2813H18.6719V21.4219H10.3906V30.0547H19.7422V27.2891H18.8828V29.1953ZM22.6797 9.90625V25.0234L26.1406 30.4766L29.6094 25.0312V9.90625H22.6797ZM28.75 10.7656V23.8594C27.25 22.9609 25.8672 23.0547 24.9219 23.3203C24.3437 23.4844 23.875 23.7188 23.5391 23.9219V15.2813H27.6328V14.4219H23.5391V13.5469H27.6328V12.6875H23.5391V10.7656H28.75ZM23.625 24.8984C23.8203 24.75 24.375 24.3594 25.1562 24.1406C26.3906 23.7969 27.5781 24.0313 28.7031 24.8516L26.1484 28.8672L23.625 24.8984Z" fill="#115C36"/>
<path d="M15.0625 27.4453L13.5234 24.75L12.2656 25.7578L14.8047 28.0781L15.0078 28.2656L15.2031 28.1016L21.8906 22.4844L20.5625 21.1328L15.0625 27.4453Z" fill="#115C36"/>
</svg>
