<svg width="40" height="40" viewBox="0 0 40 40" fill="none" xmlns="http://www.w3.org/2000/svg">
<path d="M23.9297 17.1094C22.4922 17.1094 21.3204 18.2812 21.3204 19.7188C21.3204 21.1563 22.4922 22.3281 23.9297 22.3281C25.3672 22.3281 26.5391 21.1563 26.5391 19.7188C26.5391 18.2734 25.3672 17.1094 23.9297 17.1094ZM23.9297 21.4687C22.961 21.4687 22.1797 20.6875 22.1797 19.7188C22.1797 18.75 22.961 17.9688 23.9297 17.9688C24.8985 17.9688 25.6798 18.75 25.6798 19.7188C25.6798 20.6797 24.8985 21.4687 23.9297 21.4687Z" fill="#115C36"/>
<path d="M29.2891 19.7186C29.2891 18.2108 28.6562 16.8436 27.6484 15.8671V7.89832H16.0859L10.5469 13.8827V28.6561H20.3125V33.8124L23.9141 30.7186L27.5469 33.8046V23.6483C28.6172 22.6796 29.2891 21.2733 29.2891 19.7186V19.7186ZM28.4297 19.7186C28.4297 22.203 26.4141 24.2186 23.9297 24.2186C21.4453 24.2186 19.4297 22.203 19.4297 19.7186C19.4297 17.2343 21.4453 15.2186 23.9297 15.2186C26.4141 15.2186 28.4297 17.2343 28.4297 19.7186ZM16.3984 8.82019V13.8827H11.7188L16.3984 8.82019V8.82019ZM11.4062 26.2421V14.7421H17.2578V8.75769H26.7891V15.1874C25.9336 14.6461 24.942 14.359 23.9297 14.3593C20.9766 14.3593 18.5703 16.7655 18.5703 19.7186C18.5703 21.2811 19.2422 22.6952 20.3203 23.6796V27.7343L11.4062 26.2421V26.2421ZM26.6953 31.953L23.9219 29.5936L21.1797 31.953V24.3124C21.9844 24.7968 22.9219 25.078 23.9297 25.078C24.9375 25.078 25.8828 24.7968 26.6953 24.3124V31.953V31.953Z" fill="#115C36"/>
</svg>
