<svg width="44" height="44" viewBox="0 0 44 44" fill="none" xmlns="http://www.w3.org/2000/svg">
<path d="M14.6869 10.5445C15.2884 10.2352 15.9158 10.2266 15.9244 10.2266H31.3931V9.28125H15.9244C15.89 9.28125 12.6072 9.31563 12.6072 12.5984V34.7188H31.3759L31.3673 13.8789L15.6837 13.8875C14.7298 13.8875 14.1369 13.0453 13.8619 12.5125H31.3931V11.5672H13.733C13.9134 11.1203 14.2314 10.7766 14.6869 10.5445ZM15.6837 14.8414L30.422 14.8328L30.4306 33.782L13.5525 32.0633V13.75C14.1455 14.4633 14.8759 14.8414 15.6837 14.8414Z" fill="#115C36"/>
<path d="M22.55 29.3133C23.3062 29.3133 23.9335 29.2188 24.4234 29.0211C24.9132 28.8234 25.2828 28.5828 25.5234 28.2992C25.764 28.0156 25.8757 27.732 25.8757 27.4656C25.8757 27.2938 25.8328 27.1477 25.7554 27.0273C25.6781 26.907 25.5835 26.8211 25.489 26.7695C25.2656 27.1219 24.939 27.4312 24.4921 27.6977C24.0453 27.9641 23.5039 28.1016 22.8765 28.1016C22.0343 28.1016 21.3898 27.8094 20.9515 27.2164C20.5046 26.6234 20.2726 25.6781 20.2468 24.3719H26.2968V23.5125C26.2968 22.0602 25.9445 20.9687 25.2484 20.2297C24.5437 19.4906 23.5898 19.1211 22.3695 19.1211C21.0289 19.1211 19.9976 19.5508 19.2757 20.4188C18.5539 21.2867 18.1843 22.5758 18.1843 24.2945C18.1843 25.8758 18.5625 27.1047 19.3273 27.9898C20.0835 28.875 21.1578 29.3133 22.55 29.3133ZM20.8742 20.9945C21.2179 20.4531 21.7078 20.1781 22.3437 20.1781C23.014 20.1781 23.4867 20.4617 23.7703 21.0375C24.0539 21.6133 24.1914 22.3781 24.1914 23.3406H20.2812C20.3328 22.318 20.5304 21.5359 20.8742 20.9945Z" fill="#115C36"/>
</svg>
