<svg width="41" height="40" viewBox="0 0 41 40" fill="none" xmlns="http://www.w3.org/2000/svg">
<path d="M31.8048 28.1484C31.7892 27.8203 31.7189 27.5156 31.6251 27.2187C31.5314 26.9297 31.4142 26.6484 31.2814 26.3828C31.1486 26.1172 31.0079 25.8594 30.8439 25.6094C30.6876 25.3672 30.5392 25.1406 30.3908 24.8984L29.4923 23.4844L27.6954 20.6562L24.1642 15.1094V10.4062L26.9845 10.7969V9.03125L23.7345 9.48438L23.3048 9.54687V15.3594L23.3751 15.4688L26.9767 21.125L28.7736 23.9531L29.672 25.3672C29.8204 25.6016 29.9689 25.8438 30.1251 26.0703C30.2657 26.2891 30.3986 26.5156 30.5157 26.75C30.6329 26.9844 30.7345 27.2266 30.8048 27.4688C30.8829 27.7109 30.9376 27.9531 30.9454 28.1797C30.9611 28.4063 30.9298 28.625 30.8517 28.7969C30.7736 28.9688 30.6408 29.1172 30.4611 29.2266C30.3751 29.2813 30.2736 29.3281 30.1642 29.375C30.0548 29.4141 29.9376 29.4453 29.8204 29.4766C29.5782 29.5312 29.3283 29.5547 29.0626 29.5625C28.8126 29.5703 28.5158 29.5703 28.2423 29.5703H13.1642C12.8907 29.5703 12.5939 29.5703 12.3439 29.5625C12.0861 29.5547 11.8283 29.5234 11.5861 29.4766C11.4689 29.4453 11.3517 29.4141 11.2423 29.375C11.1329 29.3359 11.0314 29.2891 10.9454 29.2266C10.7658 29.1172 10.6329 28.9688 10.5548 28.7969C10.4767 28.625 10.4454 28.4063 10.4611 28.1797C10.4767 27.9531 10.5236 27.7109 10.6017 27.4688C10.6798 27.2266 10.7814 26.9844 10.8908 26.75C11.0079 26.5156 11.1408 26.2813 11.2814 26.0703C11.4298 25.8438 11.5782 25.6016 11.7345 25.3672L12.6329 23.9531L14.4298 21.125L18.0314 15.4688L18.1017 15.3594V9.55469L17.672 9.49219L14.422 9.02344V10.8125L17.2423 10.4062V15.1094L13.7111 20.6562L11.9142 23.4844L11.0157 24.8984C10.8673 25.1328 10.7189 25.3672 10.5626 25.6094C10.3986 25.8594 10.2579 26.1172 10.1251 26.3828C9.99231 26.6484 9.87513 26.9297 9.78138 27.2187C9.68763 27.5078 9.61731 27.8203 9.60169 28.1484C9.58606 28.4766 9.61731 28.8281 9.77356 29.1641C9.85169 29.3281 9.95325 29.4922 10.0782 29.625C10.2032 29.7578 10.3439 29.875 10.4923 29.9688C10.7892 30.1563 11.1017 30.2578 11.4064 30.3281C11.7111 30.3906 12.0158 30.4219 12.3126 30.4375C12.6173 30.4453 12.8829 30.4453 13.1642 30.4453H28.2423C28.5236 30.4453 28.7892 30.4531 29.0939 30.4375C29.3908 30.4219 29.6954 30.3906 30.0001 30.3281C30.3048 30.2578 30.6173 30.1563 30.9142 29.9688C31.0626 29.875 31.2033 29.7656 31.3283 29.625C31.4533 29.4922 31.5548 29.3281 31.6329 29.1641C31.7814 28.8281 31.8204 28.4687 31.8048 28.1484V28.1484Z" fill="#115C36"/>
<path d="M16.4141 22.9064L18.5859 23.6564L15.0625 28.6642L23.3984 22.9845L20.9453 22.1407L23.8281 17.297L16.4141 22.9064V22.9064ZM21.4922 23.2423L18.5156 25.2657L19.9375 23.2189L18.2109 22.6251L20.8828 20.6017L19.6562 22.6095L21.4922 23.2423Z" fill="#115C36"/>
</svg>
