<svg width="41" height="40" viewBox="0 0 41 40" fill="none" xmlns="http://www.w3.org/2000/svg">
<path d="M32.7343 9.79696L32.4609 9.14071L29.6093 12.5313L25.789 10.3438L29.1406 6.35946L28.4531 6.20321C26.2187 5.6954 23.9218 6.46884 22.4531 8.21884C21.0234 9.92196 20.6328 12.2267 21.4218 14.2892L19.8906 16.1251L15.3437 9.99228L15.2109 9.82821L9.68744 7.3204L10.4843 13.3438L15.9999 20.7813L8.17181 30.1407L12.7109 33.9532L19.6406 25.672L25.1874 33.1485C25.2187 33.1876 25.4921 33.547 25.9609 33.7657C26.164 33.8595 26.4218 33.9376 26.7187 33.9376C27.0859 33.9376 27.5234 33.8204 27.9921 33.4688L29.414 32.4142C29.4531 32.3829 29.8281 32.1017 30.0781 31.6407C30.4453 30.9767 30.3906 30.2657 29.9218 29.6329L23.5312 21.0157L25.9687 18.1017C28.1406 18.5235 30.3437 17.7501 31.7734 16.047C33.2421 14.3048 33.6093 11.9063 32.7343 9.79696V9.79696ZM12.3124 9.45321L10.9687 10.4532L10.7421 8.74228L12.3124 9.45321ZM11.1015 11.4298L13.2109 9.85946L14.6718 10.5235L27.9531 28.422C27.8906 28.586 27.6718 28.922 27.164 29.3907L13.5624 11.8126L12.8749 12.3282L25.7499 30.4376C25.1796 30.7735 24.7656 30.9063 24.6015 30.922L11.3124 13.0079L11.1015 11.4298ZM13.1093 32.1485L9.38275 30.0392L16.5312 21.4845L19.1093 24.961L13.1093 32.1485ZM29.3359 31.2032C29.1718 31.5157 28.8984 31.7188 28.8984 31.7267L27.4765 32.7813C26.5703 33.4532 25.9765 32.7813 25.8671 32.6407L25.1406 31.6563C25.7187 31.461 26.414 31.0548 26.9843 30.6329C27.6718 30.1251 28.1953 29.6173 28.4999 29.172L29.2265 30.1485C29.4921 30.5001 29.5312 30.836 29.3359 31.2032V31.2032ZM31.1093 15.4923C29.8281 17.0157 27.8359 17.672 25.8984 17.211L25.6406 17.1485L22.9999 20.3048L20.4218 16.8282L22.4218 14.4376L22.3203 14.1954C21.5312 12.3673 21.8437 10.2892 23.1171 8.76571C24.2187 7.45321 25.8671 6.78134 27.5468 6.92196L24.5859 10.4454L29.2187 14.3438L32.1796 10.8282C32.5937 12.4532 32.2109 14.1876 31.1093 15.4923V15.4923Z" fill="#115C36"/>
</svg>
