<svg width="41" height="40" viewBox="0 0 41 40" fill="none" xmlns="http://www.w3.org/2000/svg">
<path d="M23.9455 25C20.5861 26.3672 18.133 25.3828 17.4299 25.0312V23.8515H16.5705V25.5234L16.7736 25.6484C16.8596 25.7031 18.2736 26.5625 20.5236 26.5625C21.672 26.5625 23.0314 26.3437 24.547 25.6797L24.8049 25.5703V23.8515H23.9455V25ZM20.5236 16.9531C21.672 16.9531 23.0314 16.7344 24.547 16.0703L24.8049 15.9609V14.2422H23.9455V15.3906C20.5861 16.7578 18.133 15.7734 17.4299 15.4219V14.2422H16.5705V15.9141L16.7736 16.0391C16.8596 16.0937 18.2736 16.9531 20.5236 16.9531V16.9531Z" fill="#115C36"/>
<path d="M10.1561 10.2891V30.3281H31.2186V10.2891H10.1561ZM30.3592 11.1484V19.5703L20.6873 20L11.0154 19.5625V11.1484H30.3592V11.1484ZM11.0154 29.4688V21.0469L20.6873 20.6094L30.3592 21.0391V29.4766H11.0154V29.4688Z" fill="#115C36"/>
</svg>
