<svg width="41" height="40" viewBox="0 0 41 40" fill="none" xmlns="http://www.w3.org/2000/svg">
<path d="M32.3436 24.2108V11.9374C32.3436 10.6327 31.2968 10.1639 30.5936 10.1639H10.6561C9.37488 10.1639 8.90613 11.2264 8.90613 11.9374V24.2108H5.69519V29.4139H35.6718V24.2108H32.3436V24.2108ZM9.7655 11.9374C9.7655 11.9374 9.77332 11.6718 9.89832 11.4296C10.0468 11.1483 10.2889 11.0155 10.6561 11.0155H30.5936C30.8046 11.0155 31.4843 11.0936 31.4843 11.9296V24.203H23.4061V25.7733H18.3514L18.3358 24.203H9.7655V11.9374V11.9374ZM34.8202 28.5546L6.56238 27.7733V25.0702H17.4843L17.4999 26.6405H24.2655V25.0702H34.8124V28.5546H34.8202Z" fill="#115C36"/>
<path d="M20.6877 23.0781L21.1096 22.914C23.1877 22.1328 25.0783 22.164 26.8674 23L27.4768 23.289V13.4375H26.1486V11.9218L25.7893 11.8672C23.6408 11.5234 21.9299 11.9922 20.6955 13.2578C19.4533 11.9922 17.7424 11.5234 15.6017 11.8672L15.2424 11.9218V13.4375H13.9142V23.2812L14.5236 22.9921C16.3127 22.1562 18.2033 22.125 20.2814 22.9062L20.6877 23.0781ZM26.6174 14.2968V21.9687C24.883 21.3203 23.0783 21.3359 21.133 22V21.7968C22.2268 20.4765 23.7033 20.039 25.6252 20.4687L26.1486 20.5859V14.2968H26.6174ZM21.1252 14.0468C22.1174 12.9062 23.4846 12.4531 25.2814 12.664V19.5156C23.6252 19.2656 22.2346 19.6172 21.1252 20.5625V14.0468V14.0468ZM16.0939 12.664C17.8908 12.4531 19.258 12.9062 20.2502 14.0468V20.5625C19.3674 19.8125 18.3127 19.4375 17.0939 19.4375C16.7736 19.4375 16.4377 19.4609 16.0939 19.5156V12.664ZM14.758 21.9609V14.2968H15.2267V20.5703L15.7502 20.4531C17.6799 20.0312 19.1486 20.4609 20.2424 21.7812V21.9843C18.2971 21.3281 16.4924 21.3203 14.758 21.9609Z" fill="#115C36"/>
<path d="M19.6174 15.0311L19.6564 14.0936C19.6096 14.0546 18.4689 13.0702 16.9533 13.328L16.5314 13.3983L16.5392 14.2811C17.5939 13.9843 18.633 14.0546 19.6174 15.0311ZM19.6174 17.2577L19.6564 16.3202C19.6096 16.2811 18.4689 15.2968 16.9533 15.5546L16.5314 15.6249L16.5392 16.5077C17.5939 16.203 18.633 16.2733 19.6174 17.2577ZM19.6174 19.4765L19.6564 18.539C19.6096 18.4999 18.4689 17.5155 16.9533 17.7733L16.5314 17.8436L16.5392 18.7265C17.5939 18.4296 18.633 18.4999 19.6174 19.4765ZM21.7346 15.0311L21.6955 14.0936C21.7424 14.0546 22.883 13.0702 24.3986 13.328L24.8205 13.3983L24.8127 14.2811C23.758 13.9843 22.7189 14.0546 21.7346 15.0311ZM21.7346 17.2577L21.6955 16.3202C21.7424 16.2811 22.883 15.2968 24.3986 15.5546L24.8205 15.6249L24.8127 16.5077C23.758 16.203 22.7189 16.2733 21.7346 17.2577ZM21.7346 19.4765L21.6955 18.539C21.7424 18.4999 22.883 17.5155 24.3986 17.7733L24.8205 17.8436L24.8127 18.7265C23.758 18.4296 22.7189 18.4999 21.7346 19.4765Z" fill="#115C36"/>
</svg>
