<svg width="41" height="40" viewBox="0 0 41 40" fill="none" xmlns="http://www.w3.org/2000/svg">
<path d="M20.7033 14.0233C22.2892 14.0233 23.5861 12.7343 23.5861 11.1405C23.5861 9.54675 22.2971 8.25769 20.7033 8.25769C19.1174 8.25769 17.8205 9.54675 17.8205 11.1405C17.8205 12.7343 19.1174 14.0233 20.7033 14.0233ZM20.7033 9.12488C21.8205 9.12488 22.7267 10.0311 22.7267 11.1483C22.7267 12.2655 21.8205 13.1718 20.7033 13.1718C19.5861 13.1718 18.6799 12.2655 18.6799 11.1483C18.6799 10.0311 19.5861 9.12488 20.7033 9.12488V9.12488ZM25.2267 20.9374C25.2267 19.2655 24.7736 17.6874 23.9533 16.4921C23.1017 15.2499 21.9455 14.5702 20.7033 14.5702C19.4611 14.5702 18.3127 15.2577 17.4533 16.4921C16.633 17.6874 16.1799 19.2655 16.1799 20.9374V21.3671H25.2189V20.9374H25.2267ZM17.2189 19.2421C17.2189 19.2421 18.0471 15.4296 20.7033 15.4296C22.6252 15.4296 24.2111 17.6718 24.3517 20.5077L17.2189 19.2421ZM31.883 11.3593C33.4689 11.3593 34.7658 10.0702 34.7658 8.47644C34.7658 6.88269 33.4767 5.59363 31.883 5.59363C30.2971 5.59363 29.0002 6.88269 29.0002 8.47644C29.0002 10.0702 30.2971 11.3593 31.883 11.3593ZM31.883 6.453C33.0002 6.453 33.9064 7.35925 33.9064 8.47644C33.9064 9.59363 33.0002 10.4999 31.883 10.4999C30.7658 10.4999 29.8596 9.59363 29.8596 8.47644C29.8596 7.35925 30.7658 6.453 31.883 6.453V6.453ZM9.49237 11.3593C11.0783 11.3593 12.3752 10.0702 12.3752 8.47644C12.3752 6.88269 11.0783 5.59363 9.49237 5.59363C7.90643 5.59363 6.60956 6.88269 6.60956 8.47644C6.60956 10.0702 7.90643 11.3593 9.49237 11.3593V11.3593ZM9.49237 6.453C10.6096 6.453 11.5158 7.35925 11.5158 8.47644C11.5158 9.59363 10.6096 10.4999 9.49237 10.4999C8.37518 10.4999 7.46893 9.59363 7.46893 8.47644C7.46893 7.35925 8.37518 6.453 9.49237 6.453V6.453Z" fill="#115C36"/>
<path d="M28.8596 18.6953H36.4064V18.2656C36.4064 16.5937 35.9533 15.0156 35.133 13.8203C34.2814 12.5781 33.1252 11.8984 31.883 11.8984C30.9064 11.8984 29.9846 12.3203 29.2267 13.1094C29.0002 12.2422 28.633 11.3984 28.1252 10.6015C28.1017 10.5547 28.0783 10.5234 28.0549 10.5C25.3986 6.46873 19.9533 5.33592 15.8908 7.97655C13.9846 9.21873 12.7189 11.0859 12.1799 13.1406C11.4064 12.3359 10.4767 11.8984 9.49237 11.8984C8.25018 11.8984 7.10175 12.5859 6.24237 13.8203C5.42206 15.0156 4.96893 16.5937 4.96893 18.2656V18.6953H12.5392C12.7424 19.1953 13.0002 19.6875 13.3049 20.1562C14.9846 22.7578 17.8205 24.1719 20.7111 24.1719C22.0783 24.1719 23.4689 23.8515 24.7502 23.1875L27.9377 27.2812L26.4455 28.2812L30.2424 34.1953L30.2658 34.2344L30.5549 34.5234L34.3674 31.9844L30.5783 26.0937L30.3596 25.664L28.6721 26.7969L26.2971 22.1719C27.4611 21.2265 28.3205 20.0234 28.8596 18.6953V18.6953ZM33.1955 31.7422L30.7424 33.375L27.6252 28.5312L30.0783 26.8984L33.1955 31.7422ZM31.883 12.7578C33.8049 12.7578 35.3908 15 35.5314 17.8359L29.3986 16.75C29.5314 15.914 29.5471 15.0547 29.4377 14.1953C29.9846 13.4219 30.7736 12.7578 31.883 12.7578V12.7578ZM6.008 16.5703C6.008 16.5703 6.83612 12.7578 9.49237 12.7578C10.4455 12.7578 11.3205 13.3125 11.9689 14.2187C11.8205 15.3594 11.8908 16.539 12.1955 17.6719L6.008 16.5703V16.5703ZM14.0314 19.6875C11.6486 16.0156 12.6955 11.0859 16.3596 8.6953C17.6955 7.8203 19.2033 7.40623 20.6955 7.40623C23.2892 7.40623 25.8361 8.67186 27.3517 11L27.3752 11.039L27.383 11.0469C29.758 14.7344 28.7033 19.6562 25.0314 22.0312C21.3439 24.4219 16.4142 23.3672 14.0314 19.6875Z" fill="#115C36"/>
</svg>
