<svg width="41" height="40" viewBox="0 0 41 40" fill="none" xmlns="http://www.w3.org/2000/svg">
<path d="M19.8284 27.7891C21.3687 27.7891 22.6174 26.5404 22.6174 25C22.6174 23.4596 21.3687 22.2109 19.8284 22.2109C18.288 22.2109 17.0393 23.4596 17.0393 25C17.0393 26.5404 18.288 27.7891 19.8284 27.7891Z" fill="#115C36"/>
<path d="M25.7422 20.7578V13.8359C25.7422 10.5859 23.0937 7.92969 19.8359 7.91406C16.5859 7.91406 13.9297 10.5625 13.9141 13.8203V14.25H14.7734V13.8203C14.7813 11.0312 17.0547 8.76562 19.8359 8.76562C21.6172 8.77344 23.1875 9.70312 24.0859 11.1094C24.3906 11.6172 25.0078 12.9609 24.6953 15.1719L24.1406 19.1172C22.9375 18.2266 21.4453 17.7031 19.8359 17.7031C15.8203 17.7031 12.5625 20.9688 12.5625 24.9766C12.5625 28.9844 15.8281 32.25 19.8359 32.25C23.8437 32.25 27.1094 28.9844 27.1094 24.9766C27.1094 23.4141 26.6016 21.9531 25.7422 20.7578V20.7578ZM19.8281 31.4141C16.2891 31.4141 13.4141 28.5391 13.4141 25C13.4141 21.4609 16.2891 18.5859 19.8281 18.5859C23.3672 18.5859 26.2422 21.4609 26.2422 25C26.2422 28.5391 23.3672 31.4141 19.8281 31.4141V31.4141Z" fill="#115C36"/>
</svg>
