<svg width="32" height="32" viewBox="0 0 32 32" fill="none" xmlns="http://www.w3.org/2000/svg">
<path d="M16.0125 11.2188C17.2813 11.2188 18.3188 10.1876 18.3188 8.9126C18.3188 7.6376 17.2875 6.60635 16.0125 6.60635C14.7438 6.60635 13.7063 7.6376 13.7063 8.9126C13.7063 10.1876 14.7438 11.2188 16.0125 11.2188ZM16.0125 7.3001C16.9063 7.3001 17.6313 8.0251 17.6313 8.91885C17.6313 9.8126 16.9063 10.5376 16.0125 10.5376C15.1188 10.5376 14.3938 9.8126 14.3938 8.91885C14.3938 8.0251 15.1188 7.3001 16.0125 7.3001ZM19.6313 16.7501C19.6313 15.4126 19.2688 14.1501 18.6125 13.1938C17.9313 12.2001 17.0063 11.6563 16.0125 11.6563C15.0188 11.6563 14.1 12.2063 13.4125 13.1938C12.7563 14.1501 12.3938 15.4126 12.3938 16.7501V17.0938H19.625V16.7501H19.6313ZM13.225 15.3938C13.225 15.3938 13.8875 12.3438 16.0125 12.3438C17.55 12.3438 18.8188 14.1376 18.9313 16.4063L13.225 15.3938ZM24.9563 9.0876C26.225 9.0876 27.2625 8.05635 27.2625 6.78135C27.2625 5.50635 26.2313 4.4751 24.9563 4.4751C23.6875 4.4751 22.65 5.50635 22.65 6.78135C22.65 8.05635 23.6875 9.0876 24.9563 9.0876ZM24.9563 5.1626C25.85 5.1626 26.575 5.8876 26.575 6.78135C26.575 7.6751 25.85 8.4001 24.9563 8.4001C24.0625 8.4001 23.3375 7.6751 23.3375 6.78135C23.3375 5.8876 24.0625 5.1626 24.9563 5.1626ZM7.0438 9.0876C8.31255 9.0876 9.35005 8.05635 9.35005 6.78135C9.35005 5.50635 8.31255 4.4751 7.0438 4.4751C5.77505 4.4751 4.73755 5.50635 4.73755 6.78135C4.73755 8.05635 5.77505 9.0876 7.0438 9.0876ZM7.0438 5.1626C7.93755 5.1626 8.66255 5.8876 8.66255 6.78135C8.66255 7.6751 7.93755 8.4001 7.0438 8.4001C6.15005 8.4001 5.42505 7.6751 5.42505 6.78135C5.42505 5.8876 6.15005 5.1626 7.0438 5.1626Z" fill="#115C36"/>
<path d="M22.5375 14.9562H28.5751V14.6124C28.5751 13.2749 28.2125 12.0124 27.5563 11.0562C26.875 10.0624 25.95 9.51869 24.9563 9.51869C24.175 9.51869 23.4375 9.85619 22.8313 10.4874C22.65 9.79369 22.3563 9.11869 21.9501 8.48119C21.9313 8.44369 21.9125 8.41869 21.8938 8.39994C19.7688 5.17494 15.4125 4.26869 12.1625 6.38119C10.6375 7.37494 9.62505 8.86869 9.1938 10.5124C8.57505 9.86869 7.8313 9.51869 7.0438 9.51869C6.05005 9.51869 5.1313 10.0687 4.4438 11.0562C3.78755 12.0124 3.42505 13.2749 3.42505 14.6124V14.9562H9.4813C9.6438 15.3562 9.85005 15.7499 10.0938 16.1249C11.4375 18.2062 13.7063 19.3374 16.0188 19.3374C17.1125 19.3374 18.225 19.0812 19.25 18.5499L21.8 21.8249L20.6063 22.6249L23.6438 27.3562L23.6625 27.3874L23.8938 27.6187L26.9438 25.5874L23.9125 20.8749L23.7375 20.5312L22.3876 21.4374L20.4875 17.7374C21.4188 16.9812 22.1063 16.0187 22.5375 14.9562ZM26.0063 25.3937L24.0438 26.6999L21.55 22.8249L23.5126 21.5187L26.0063 25.3937ZM24.9563 10.2062C26.4938 10.2062 27.7626 11.9999 27.875 14.2687L22.9688 13.3999C23.0751 12.7312 23.0875 12.0437 23 11.3562C23.4375 10.7374 24.0688 10.2062 24.9563 10.2062ZM4.2563 13.2562C4.2563 13.2562 4.9188 10.2062 7.0438 10.2062C7.8063 10.2062 8.5063 10.6499 9.02505 11.3749C8.9063 12.2874 8.96255 13.2312 9.2063 14.1374L4.2563 13.2562ZM10.675 15.7499C8.7688 12.8124 9.6063 8.86869 12.5375 6.95619C13.6063 6.25619 14.8125 5.92494 16.0063 5.92494C18.0813 5.92494 20.1188 6.93744 21.3313 8.79994L21.35 8.83119L21.3563 8.83744C23.2563 11.7874 22.4125 15.7249 19.475 17.6249C16.5251 19.5374 12.5813 18.6937 10.675 15.7499Z" fill="#115C36"/>
</svg>
