<svg width="41" height="40" viewBox="0 0 41 40" fill="none" xmlns="http://www.w3.org/2000/svg">
<path d="M28.1875 20.9766C27.8984 20.6797 27.5078 20.5234 27.1016 20.5234H26.6719V20.5C26.6719 19.6562 25.9844 18.9688 25.1406 18.9688H24.9531C24.7031 18.9688 24.4687 19.0312 24.2578 19.1328C24.1719 18.375 23.5234 17.7813 22.7344 17.7813H21.8672V15.9219C21.8672 15.0781 21.1797 14.3906 20.3359 14.3906H20.0937C19.25 14.3906 18.5625 15.0781 18.5625 15.9219V23.4844C17.6172 22.6563 16.6797 22.2578 15.7656 22.2813C14.5234 22.3125 13.8281 23.1562 13.7969 23.1875L13.5625 23.4844L13.8281 23.7578C13.8672 23.7969 17.3672 27.375 18.6406 28.6484C19.8125 29.8203 20.125 31.2734 20.1328 31.2891L20.2031 31.6328H27.1797L27.2969 31.5469C27.5859 31.3281 28.5547 29.9844 28.6328 22.0625C28.6328 21.6562 28.4765 21.2656 28.1875 20.9766V20.9766ZM26.8125 30.7812H20.8828C20.7109 30.2187 20.2578 29.0547 19.25 28.0469C18.2031 27 15.6484 24.3984 14.7578 23.4844C14.9844 23.3281 15.3437 23.1484 15.8125 23.1406C16.6797 23.125 17.6719 23.6953 18.6797 24.7969L19.4297 25.6172V15.9219C19.4297 15.5547 19.7344 15.25 20.1016 15.25H20.3437C20.7109 15.25 21.0156 15.5547 21.0156 15.9219V22.8594H21.875V18.6406H22.7422C23.1094 18.6406 23.4141 18.9453 23.4141 19.3125V22.8594H24.2812V20.5C24.2812 20.1328 24.5859 19.8281 24.9531 19.8281H25.1406C25.5078 19.8281 25.8125 20.1328 25.8125 20.5V22.8594H26.6719V21.3828H27.1016C27.2812 21.3828 27.4531 21.4531 27.5781 21.5859C27.7031 21.7109 27.7734 21.8828 27.7734 22.0625C27.7031 28.5234 27.039 30.3437 26.8125 30.7812V30.7812ZM19.7266 12.7422L19.7969 13.1328H20.4375L20.5 12.7422L21.0937 9.35156L21.2656 8.375H18.9687L19.1406 9.35156L19.7266 12.7422ZM22.2656 13.4297L24.6641 10.9687L25.3516 10.25L23.4609 8.96875L23.0547 9.85938L21.625 13L21.4609 13.3516L21.9922 13.7188L22.2656 13.4297ZM17.9375 13.4297L18.2109 13.7188L18.7344 13.3516L18.5703 13L17.1484 9.85938L16.7344 8.96875L14.8437 10.25L15.5312 10.9687L17.9375 13.4297ZM17.0703 15.0156L17.4531 15.0938L17.6953 14.5078L17.3672 14.2891L14.4531 12.4688L13.6094 11.9375L12.7422 14.0547L13.7109 14.2734L17.0703 15.0156ZM22.5156 14.5859L22.7578 15.1719L23.1406 15.0938L26.5078 14.3516L27.4765 14.1328L26.6016 12.0156L25.7656 12.5469L22.8516 14.3672L22.5156 14.5859Z" fill="#115C36"/>
</svg>
